<?xml version="1.0" encoding="UTF-8" standalone="no"?>
<!DOCTYPE svg
  PUBLIC '-//W3C//DTD SVG 1.1//EN'
  'http://www.w3.org/Graphics/SVG/1.1/DTD/svg11.dtd'>
<svg height="100%" style="fill-rule:evenodd;clip-rule:evenodd;stroke-linejoin:round;stroke-miterlimit:2;" version="1.1" viewBox="0 0 842 40" width="100%" xml:space="preserve" xmlns="http://www.w3.org/2000/svg" xmlns:serif="http://www.serif.com/" xmlns:xlink="http://www.w3.org/1999/xlink">

	<style type="text/css" >
	<![CDATA[
		.vaguelettes {
			animation: 3s linear 1s infinite alternate slidein;
		}

		.vaguelettes02 {
			position: relative;
			top: -2px;
			animation: 7s linear 1s infinite alternate-reverse slidein02;
		}

		@keyframes slidein {
			from { transform: translateX(0); }
			to   { transform: translateX(-12px); }
		}
		@keyframes slidein02 {
			from { transform: translateX(0); }
			to   { transform: translateX(8px); }
		}
	]]>
	</style>

	<rect height="38.979" id="vagues" style="fill:none;" width="841.89" x="0" y="0"/>
	<clipPath id="_clip1">
		<rect height="38.979" width="841.89" x="0" y="0"/>
	</clipPath>
	<g clip-path="url(#_clip1)">
		<path class="vaguelettes" d="M440.272,42.32l-449.181,0l0,-7.054c1.608,0 1.193,2.091 5.197,2.228c3.277,0.112 3.959,-2.97 5.568,-2.97c1.609,0 2.475,2.97 5.94,2.97c3.245,0 3.826,-2.307 5.568,-2.879l0,-0.091c0.063,0.01 0.125,0.023 0.186,0.038c0.06,-0.015 0.122,-0.028 0.185,-0.038l0,0.091c1.742,0.572 2.324,2.879 5.569,2.879c3.464,0 4.331,-2.97 5.939,-2.97c1.609,0 2.291,3.082 5.569,2.97c4.003,-0.137 3.588,-2.228 5.197,-2.228l0.019,0c1.586,0.017 1.19,2.091 5.178,2.228c3.277,0.112 3.96,-2.97 5.568,-2.97c1.609,0 2.475,2.97 5.94,2.97c3.245,0 3.827,-2.307 5.568,-2.879l0,-0.091c0.064,0.01 0.125,0.023 0.186,0.038c0.06,-0.015 0.122,-0.028 0.185,-0.038l0,0.091c1.742,0.572 2.324,2.879 5.569,2.879c3.465,0 4.331,-2.97 5.939,-2.97c1.609,0 2.291,3.082 5.569,2.97c4.003,-0.137 3.588,-2.228 5.197,-2.228l0.019,0c1.586,0.017 1.19,2.091 5.178,2.228c3.278,0.112 3.96,-2.97 5.568,-2.97c1.609,0 2.475,2.97 5.94,2.97c3.245,0 3.827,-2.307 5.568,-2.879l0,-0.091c0.064,0.01 0.126,0.023 0.186,0.038c0.06,-0.015 0.122,-0.028 0.186,-0.038l0,0.091c1.741,0.572 2.323,2.879 5.568,2.879c3.465,0 4.331,-2.97 5.94,-2.97c1.608,0 2.29,3.082 5.568,2.97c4.003,-0.137 3.588,-2.228 5.197,-2.228l0.019,0c1.587,0.017 1.19,2.091 5.178,2.228c3.278,0.112 3.96,-2.97 5.569,-2.97c1.608,0 2.474,2.97 5.939,2.97c3.245,0 3.827,-2.307 5.569,-2.879l0,-0.091c0.063,0.01 0.125,0.023 0.185,0.038c0.061,-0.015 0.122,-0.028 0.186,-0.038l0,0.091c1.741,0.572 2.323,2.879 5.568,2.879c3.465,0 4.331,-2.97 5.94,-2.97c1.608,0 2.291,3.082 5.568,2.97c4.004,-0.137 3.589,-2.228 5.197,-2.228l0.019,0c1.587,0.017 1.191,2.091 5.178,2.228c3.278,0.112 3.96,-2.97 5.569,-2.97c1.608,0 2.475,2.97 5.939,2.97c3.245,0 3.827,-2.307 5.569,-2.879l0,-0.091c0.063,0.01 0.125,0.023 0.185,0.038c0.061,-0.015 0.123,-0.028 0.186,-0.038l0,0.091c1.742,0.572 2.323,2.879 5.568,2.879c3.465,0 4.331,-2.97 5.94,-2.97c1.609,0 2.291,3.082 5.568,2.97c4.004,-0.137 3.589,-2.228 5.197,-2.228l0.019,0c1.587,0.017 1.191,2.091 5.179,2.228c3.277,0.112 3.959,-2.97 5.568,-2.97c1.609,0 2.475,2.97 5.94,2.97c3.244,0 3.826,-2.307 5.568,-2.879l0,-0.091c0.063,0.01 0.125,0.023 0.186,0.038c0.06,-0.015 0.122,-0.028 0.185,-0.038l0,0.091c1.742,0.572 2.324,2.879 5.568,2.879c3.465,0 4.331,-2.97 5.94,-2.97c1.609,0 2.291,3.082 5.568,2.97c4.004,-0.137 3.589,-2.228 5.198,-2.228l0.018,0c1.587,0.017 1.191,2.091 5.179,2.228c3.277,0.112 3.959,-2.97 5.568,-2.97c1.609,0 2.475,2.97 5.94,2.97c3.245,0 3.826,-2.307 5.568,-2.879l0,-0.091c0.063,0.01 0.125,0.023 0.186,0.038c0.06,-0.015 0.122,-0.028 0.185,-0.038l0,0.091c1.742,0.572 2.324,2.879 5.569,2.879c3.464,0 4.331,-2.97 5.939,-2.97c1.609,0 2.291,3.082 5.569,2.97c4.003,-0.137 3.588,-2.228 5.197,-2.228l0.019,0c1.586,0.017 1.19,2.091 5.178,2.228c3.277,0.112 3.96,-2.97 5.568,-2.97c1.609,0 2.475,2.97 5.94,2.97c3.245,0 3.827,-2.307 5.568,-2.879l0,-0.091c0.064,0.01 0.125,0.023 0.186,0.038c0.06,-0.015 0.122,-0.028 0.185,-0.038l0,0.091c1.742,0.572 2.324,2.879 5.569,2.879c3.465,0 4.331,-2.97 5.939,-2.97c1.609,0 2.291,3.082 5.569,2.97c4.003,-0.137 3.588,-2.228 5.197,-2.228l0.019,0c1.586,0.017 1.19,2.091 5.178,2.228c3.278,0.112 3.96,-2.97 5.568,-2.97c1.609,0 2.475,2.97 5.94,2.97c3.245,0 3.827,-2.307 5.568,-2.879l0,-0.091c0.064,0.01 0.126,0.023 0.186,0.038c0.06,-0.015 0.122,-0.028 0.186,-0.038l0,0.091c1.741,0.572 2.323,2.879 5.568,2.879c3.465,0 4.331,-2.97 5.94,-2.97c1.608,0 2.29,3.082 5.568,2.97c4.003,-0.137 3.588,-2.228 5.197,-2.228l0.019,0c1.587,0.017 1.19,2.091 5.178,2.228c3.278,0.112 3.96,-2.97 5.569,-2.97c1.608,0 2.474,2.97 5.939,2.97c3.245,0 3.827,-2.307 5.569,-2.879l0,-0.091c0.063,0.01 0.125,0.023 0.185,0.038c0.061,-0.015 0.122,-0.028 0.186,-0.038l0,0.091c1.741,0.572 2.323,2.879 5.568,2.879c3.465,0 4.331,-2.97 5.94,-2.97c1.608,0 2.291,3.082 5.568,2.97c4.004,-0.137 3.589,-2.228 5.197,-2.228l0,7.054Zm449.182,0l-449.182,0l0,-7.054c1.609,0 1.194,2.091 5.197,2.228c3.278,0.112 3.96,-2.97 5.569,-2.97c1.608,0 2.475,2.97 5.939,2.97c3.245,0 3.827,-2.307 5.569,-2.879l0,-0.091c0.063,0.01 0.125,0.023 0.185,0.038c0.061,-0.015 0.123,-0.028 0.186,-0.038l0,0.091c1.742,0.572 2.323,2.879 5.568,2.879c3.465,0 4.331,-2.97 5.94,-2.97c1.609,0 2.291,3.082 5.568,2.97c4.004,-0.137 3.589,-2.228 5.197,-2.228l0.019,0c1.587,0.017 1.191,2.091 5.179,2.228c3.277,0.112 3.959,-2.97 5.568,-2.97c1.609,0 2.475,2.97 5.94,2.97c3.244,0 3.826,-2.307 5.568,-2.879l0,-0.091c0.063,0.01 0.125,0.023 0.185,0.038c0.061,-0.015 0.123,-0.028 0.186,-0.038l0,0.091c1.742,0.572 2.324,2.879 5.568,2.879c3.465,0 4.331,-2.97 5.94,-2.97c1.609,0 2.291,3.082 5.568,2.97c4.004,-0.137 3.589,-2.228 5.198,-2.228l0.018,0c1.587,0.017 1.191,2.091 5.179,2.228c3.277,0.112 3.959,-2.97 5.568,-2.97c1.609,0 2.475,2.97 5.94,2.97c3.245,0 3.826,-2.307 5.568,-2.879l0,-0.091c0.063,0.01 0.125,0.023 0.186,0.038c0.06,-0.015 0.122,-0.028 0.185,-0.038l0,0.091c1.742,0.572 2.324,2.879 5.569,2.879c3.464,0 4.331,-2.97 5.939,-2.97c1.609,0 2.291,3.082 5.569,2.97c4.003,-0.137 3.588,-2.228 5.197,-2.228l0.018,0c1.587,0.017 1.191,2.091 5.179,2.228c3.277,0.112 3.96,-2.97 5.568,-2.97c1.609,0 2.475,2.97 5.94,2.97c3.245,0 3.827,-2.307 5.568,-2.879l0,-0.091c0.064,0.01 0.125,0.023 0.186,0.038c0.06,-0.015 0.122,-0.028 0.185,-0.038l0,0.091c1.742,0.572 2.324,2.879 5.569,2.879c3.465,0 4.331,-2.97 5.939,-2.97c1.609,0 2.291,3.082 5.569,2.97c4.003,-0.137 3.588,-2.228 5.197,-2.228l0.019,0c1.586,0.017 1.19,2.091 5.178,2.228c3.278,0.112 3.96,-2.97 5.568,-2.97c1.609,0 2.475,2.97 5.94,2.97c3.245,0 3.827,-2.307 5.568,-2.879l0,-0.091c0.064,0.01 0.126,0.023 0.186,0.038c0.06,-0.015 0.122,-0.028 0.186,-0.038l0,0.091c1.741,0.572 2.323,2.879 5.568,2.879c3.465,0 4.331,-2.97 5.94,-2.97c1.608,0 2.29,3.082 5.568,2.97c4.003,-0.137 3.588,-2.228 5.197,-2.228l0.019,0c1.587,0.017 1.19,2.091 5.178,2.228c3.278,0.112 3.96,-2.97 5.569,-2.97c1.608,0 2.474,2.97 5.939,2.97c3.245,0 3.827,-2.307 5.569,-2.879l0,-0.091c0.063,0.01 0.125,0.023 0.185,0.038c0.061,-0.015 0.122,-0.028 0.186,-0.038l0,0.091c1.741,0.572 2.323,2.879 5.568,2.879c3.465,0 4.331,-2.97 5.94,-2.97c1.608,0 2.291,3.082 5.568,2.97c4.004,-0.137 3.589,-2.228 5.197,-2.228l0.019,0c1.587,0.017 1.19,2.091 5.178,2.228c3.278,0.112 3.96,-2.97 5.569,-2.97c1.608,0 2.475,2.97 5.939,2.97c3.245,0 3.827,-2.307 5.569,-2.879l0,-0.091c0.063,0.01 0.125,0.023 0.185,0.038c0.061,-0.015 0.123,-0.028 0.186,-0.038l0,0.091c1.742,0.572 2.323,2.879 5.568,2.879c3.465,0 4.331,-2.97 5.94,-2.97c1.609,0 2.291,3.082 5.568,2.97c4.004,-0.137 3.589,-2.228 5.197,-2.228l0.019,0c1.587,0.017 1.191,2.091 5.179,2.228c3.277,0.112 3.959,-2.97 5.568,-2.97c1.609,0 2.475,2.97 5.939,2.97c3.245,0 3.827,-2.307 5.569,-2.879l0,-0.091c0.063,0.01 0.125,0.023 0.185,0.038c0.061,-0.015 0.123,-0.028 0.186,-0.038l0,0.091c1.742,0.572 2.324,2.879 5.568,2.879c3.465,0 4.331,-2.97 5.94,-2.97c1.609,0 2.291,3.082 5.568,2.97c4.004,-0.137 3.589,-2.228 5.198,-2.228l0.018,0c1.587,0.017 1.191,2.091 5.179,2.228c3.277,0.112 3.959,-2.97 5.568,-2.97c1.609,0 2.475,2.97 5.94,2.97c3.245,0 3.826,-2.307 5.568,-2.879l0,-0.091c0.063,0.01 0.125,0.023 0.186,0.038c0.06,-0.015 0.122,-0.028 0.185,-0.038l0,0.091c1.742,0.572 2.324,2.879 5.569,2.879c3.464,0 4.331,-2.97 5.939,-2.97c1.609,0 2.291,3.082 5.569,2.97c4.003,-0.137 3.588,-2.228 5.197,-2.228l0.018,0c1.587,0.017 1.191,2.091 5.179,2.228c3.277,0.112 3.96,-2.97 5.568,-2.97c1.609,0 2.475,2.97 5.94,2.97c3.245,0 3.826,-2.307 5.568,-2.879l0,-0.091c0.064,0.01 0.125,0.023 0.186,0.038c0.06,-0.015 0.122,-0.028 0.185,-0.038l0,0.091c1.742,0.572 2.324,2.879 5.569,2.879c3.465,0 4.331,-2.97 5.939,-2.97c1.609,0 2.291,3.082 5.569,2.97c4.003,-0.137 3.588,-2.228 5.197,-2.228l0,7.054Z" style="fill:#aae2fa;fill-opacity:0.5;"/>
		<path class="vaguelettes02" d="M440.272,42.32l-449.181,0l0,-7.054c1.608,0 1.193,2.091 5.197,2.228c3.277,0.112 3.959,-2.97 5.568,-2.97c1.609,0 2.475,2.97 5.94,2.97c3.245,0 3.826,-2.307 5.568,-2.879l0,-0.091c0.063,0.01 0.125,0.023 0.186,0.038c0.06,-0.015 0.122,-0.028 0.185,-0.038l0,0.091c1.742,0.572 2.324,2.879 5.569,2.879c3.464,0 4.331,-2.97 5.939,-2.97c1.609,0 2.291,3.082 5.569,2.97c4.003,-0.137 3.588,-2.228 5.197,-2.228l0.019,0c1.586,0.017 1.19,2.091 5.178,2.228c3.277,0.112 3.96,-2.97 5.568,-2.97c1.609,0 2.475,2.97 5.94,2.97c3.245,0 3.827,-2.307 5.568,-2.879l0,-0.091c0.064,0.01 0.125,0.023 0.186,0.038c0.06,-0.015 0.122,-0.028 0.185,-0.038l0,0.091c1.742,0.572 2.324,2.879 5.569,2.879c3.465,0 4.331,-2.97 5.939,-2.97c1.609,0 2.291,3.082 5.569,2.97c4.003,-0.137 3.588,-2.228 5.197,-2.228l0.019,0c1.586,0.017 1.19,2.091 5.178,2.228c3.278,0.112 3.96,-2.97 5.568,-2.97c1.609,0 2.475,2.97 5.94,2.97c3.245,0 3.827,-2.307 5.568,-2.879l0,-0.091c0.064,0.01 0.126,0.023 0.186,0.038c0.06,-0.015 0.122,-0.028 0.186,-0.038l0,0.091c1.741,0.572 2.323,2.879 5.568,2.879c3.465,0 4.331,-2.97 5.94,-2.97c1.608,0 2.29,3.082 5.568,2.97c4.003,-0.137 3.588,-2.228 5.197,-2.228l0.019,0c1.587,0.017 1.19,2.091 5.178,2.228c3.278,0.112 3.96,-2.97 5.569,-2.97c1.608,0 2.474,2.97 5.939,2.97c3.245,0 3.827,-2.307 5.569,-2.879l0,-0.091c0.063,0.01 0.125,0.023 0.185,0.038c0.061,-0.015 0.122,-0.028 0.186,-0.038l0,0.091c1.741,0.572 2.323,2.879 5.568,2.879c3.465,0 4.331,-2.97 5.94,-2.97c1.608,0 2.291,3.082 5.568,2.97c4.004,-0.137 3.589,-2.228 5.197,-2.228l0.019,0c1.587,0.017 1.191,2.091 5.178,2.228c3.278,0.112 3.96,-2.97 5.569,-2.97c1.608,0 2.475,2.97 5.939,2.97c3.245,0 3.827,-2.307 5.569,-2.879l0,-0.091c0.063,0.01 0.125,0.023 0.185,0.038c0.061,-0.015 0.123,-0.028 0.186,-0.038l0,0.091c1.742,0.572 2.323,2.879 5.568,2.879c3.465,0 4.331,-2.97 5.94,-2.97c1.609,0 2.291,3.082 5.568,2.97c4.004,-0.137 3.589,-2.228 5.197,-2.228l0.019,0c1.587,0.017 1.191,2.091 5.179,2.228c3.277,0.112 3.959,-2.97 5.568,-2.97c1.609,0 2.475,2.97 5.94,2.97c3.244,0 3.826,-2.307 5.568,-2.879l0,-0.091c0.063,0.01 0.125,0.023 0.186,0.038c0.06,-0.015 0.122,-0.028 0.185,-0.038l0,0.091c1.742,0.572 2.324,2.879 5.568,2.879c3.465,0 4.331,-2.97 5.94,-2.97c1.609,0 2.291,3.082 5.568,2.97c4.004,-0.137 3.589,-2.228 5.198,-2.228l0.018,0c1.587,0.017 1.191,2.091 5.179,2.228c3.277,0.112 3.959,-2.97 5.568,-2.97c1.609,0 2.475,2.97 5.94,2.97c3.245,0 3.826,-2.307 5.568,-2.879l0,-0.091c0.063,0.01 0.125,0.023 0.186,0.038c0.06,-0.015 0.122,-0.028 0.185,-0.038l0,0.091c1.742,0.572 2.324,2.879 5.569,2.879c3.464,0 4.331,-2.97 5.939,-2.97c1.609,0 2.291,3.082 5.569,2.97c4.003,-0.137 3.588,-2.228 5.197,-2.228l0.019,0c1.586,0.017 1.19,2.091 5.178,2.228c3.277,0.112 3.96,-2.97 5.568,-2.97c1.609,0 2.475,2.97 5.94,2.97c3.245,0 3.827,-2.307 5.568,-2.879l0,-0.091c0.064,0.01 0.125,0.023 0.186,0.038c0.06,-0.015 0.122,-0.028 0.185,-0.038l0,0.091c1.742,0.572 2.324,2.879 5.569,2.879c3.465,0 4.331,-2.97 5.939,-2.97c1.609,0 2.291,3.082 5.569,2.97c4.003,-0.137 3.588,-2.228 5.197,-2.228l0.019,0c1.586,0.017 1.19,2.091 5.178,2.228c3.278,0.112 3.96,-2.97 5.568,-2.97c1.609,0 2.475,2.97 5.94,2.97c3.245,0 3.827,-2.307 5.568,-2.879l0,-0.091c0.064,0.01 0.126,0.023 0.186,0.038c0.06,-0.015 0.122,-0.028 0.186,-0.038l0,0.091c1.741,0.572 2.323,2.879 5.568,2.879c3.465,0 4.331,-2.97 5.94,-2.97c1.608,0 2.29,3.082 5.568,2.97c4.003,-0.137 3.588,-2.228 5.197,-2.228l0.019,0c1.587,0.017 1.19,2.091 5.178,2.228c3.278,0.112 3.96,-2.97 5.569,-2.97c1.608,0 2.474,2.97 5.939,2.97c3.245,0 3.827,-2.307 5.569,-2.879l0,-0.091c0.063,0.01 0.125,0.023 0.185,0.038c0.061,-0.015 0.122,-0.028 0.186,-0.038l0,0.091c1.741,0.572 2.323,2.879 5.568,2.879c3.465,0 4.331,-2.97 5.94,-2.97c1.608,0 2.291,3.082 5.568,2.97c4.004,-0.137 3.589,-2.228 5.197,-2.228l0,7.054Zm449.182,0l-449.182,0l0,-7.054c1.609,0 1.194,2.091 5.197,2.228c3.278,0.112 3.96,-2.97 5.569,-2.97c1.608,0 2.475,2.97 5.939,2.97c3.245,0 3.827,-2.307 5.569,-2.879l0,-0.091c0.063,0.01 0.125,0.023 0.185,0.038c0.061,-0.015 0.123,-0.028 0.186,-0.038l0,0.091c1.742,0.572 2.323,2.879 5.568,2.879c3.465,0 4.331,-2.97 5.94,-2.97c1.609,0 2.291,3.082 5.568,2.97c4.004,-0.137 3.589,-2.228 5.197,-2.228l0.019,0c1.587,0.017 1.191,2.091 5.179,2.228c3.277,0.112 3.959,-2.97 5.568,-2.97c1.609,0 2.475,2.97 5.94,2.97c3.244,0 3.826,-2.307 5.568,-2.879l0,-0.091c0.063,0.01 0.125,0.023 0.185,0.038c0.061,-0.015 0.123,-0.028 0.186,-0.038l0,0.091c1.742,0.572 2.324,2.879 5.568,2.879c3.465,0 4.331,-2.97 5.94,-2.97c1.609,0 2.291,3.082 5.568,2.97c4.004,-0.137 3.589,-2.228 5.198,-2.228l0.018,0c1.587,0.017 1.191,2.091 5.179,2.228c3.277,0.112 3.959,-2.97 5.568,-2.97c1.609,0 2.475,2.97 5.94,2.97c3.245,0 3.826,-2.307 5.568,-2.879l0,-0.091c0.063,0.01 0.125,0.023 0.186,0.038c0.06,-0.015 0.122,-0.028 0.185,-0.038l0,0.091c1.742,0.572 2.324,2.879 5.569,2.879c3.464,0 4.331,-2.97 5.939,-2.97c1.609,0 2.291,3.082 5.569,2.97c4.003,-0.137 3.588,-2.228 5.197,-2.228l0.018,0c1.587,0.017 1.191,2.091 5.179,2.228c3.277,0.112 3.96,-2.97 5.568,-2.97c1.609,0 2.475,2.97 5.94,2.97c3.245,0 3.827,-2.307 5.568,-2.879l0,-0.091c0.064,0.01 0.125,0.023 0.186,0.038c0.06,-0.015 0.122,-0.028 0.185,-0.038l0,0.091c1.742,0.572 2.324,2.879 5.569,2.879c3.465,0 4.331,-2.97 5.939,-2.97c1.609,0 2.291,3.082 5.569,2.97c4.003,-0.137 3.588,-2.228 5.197,-2.228l0.019,0c1.586,0.017 1.19,2.091 5.178,2.228c3.278,0.112 3.96,-2.97 5.568,-2.97c1.609,0 2.475,2.97 5.94,2.97c3.245,0 3.827,-2.307 5.568,-2.879l0,-0.091c0.064,0.01 0.126,0.023 0.186,0.038c0.06,-0.015 0.122,-0.028 0.186,-0.038l0,0.091c1.741,0.572 2.323,2.879 5.568,2.879c3.465,0 4.331,-2.97 5.94,-2.97c1.608,0 2.29,3.082 5.568,2.97c4.003,-0.137 3.588,-2.228 5.197,-2.228l0.019,0c1.587,0.017 1.19,2.091 5.178,2.228c3.278,0.112 3.96,-2.97 5.569,-2.97c1.608,0 2.474,2.97 5.939,2.97c3.245,0 3.827,-2.307 5.569,-2.879l0,-0.091c0.063,0.01 0.125,0.023 0.185,0.038c0.061,-0.015 0.122,-0.028 0.186,-0.038l0,0.091c1.741,0.572 2.323,2.879 5.568,2.879c3.465,0 4.331,-2.97 5.94,-2.97c1.608,0 2.291,3.082 5.568,2.97c4.004,-0.137 3.589,-2.228 5.197,-2.228l0.019,0c1.587,0.017 1.19,2.091 5.178,2.228c3.278,0.112 3.96,-2.97 5.569,-2.97c1.608,0 2.475,2.97 5.939,2.97c3.245,0 3.827,-2.307 5.569,-2.879l0,-0.091c0.063,0.01 0.125,0.023 0.185,0.038c0.061,-0.015 0.123,-0.028 0.186,-0.038l0,0.091c1.742,0.572 2.323,2.879 5.568,2.879c3.465,0 4.331,-2.97 5.94,-2.97c1.609,0 2.291,3.082 5.568,2.97c4.004,-0.137 3.589,-2.228 5.197,-2.228l0.019,0c1.587,0.017 1.191,2.091 5.179,2.228c3.277,0.112 3.959,-2.97 5.568,-2.97c1.609,0 2.475,2.97 5.939,2.97c3.245,0 3.827,-2.307 5.569,-2.879l0,-0.091c0.063,0.01 0.125,0.023 0.185,0.038c0.061,-0.015 0.123,-0.028 0.186,-0.038l0,0.091c1.742,0.572 2.324,2.879 5.568,2.879c3.465,0 4.331,-2.97 5.94,-2.97c1.609,0 2.291,3.082 5.568,2.97c4.004,-0.137 3.589,-2.228 5.198,-2.228l0.018,0c1.587,0.017 1.191,2.091 5.179,2.228c3.277,0.112 3.959,-2.97 5.568,-2.97c1.609,0 2.475,2.97 5.94,2.97c3.245,0 3.826,-2.307 5.568,-2.879l0,-0.091c0.063,0.01 0.125,0.023 0.186,0.038c0.06,-0.015 0.122,-0.028 0.185,-0.038l0,0.091c1.742,0.572 2.324,2.879 5.569,2.879c3.464,0 4.331,-2.97 5.939,-2.97c1.609,0 2.291,3.082 5.569,2.97c4.003,-0.137 3.588,-2.228 5.197,-2.228l0.018,0c1.587,0.017 1.191,2.091 5.179,2.228c3.277,0.112 3.96,-2.97 5.568,-2.97c1.609,0 2.475,2.97 5.94,2.97c3.245,0 3.826,-2.307 5.568,-2.879l0,-0.091c0.064,0.01 0.125,0.023 0.186,0.038c0.06,-0.015 0.122,-0.028 0.185,-0.038l0,0.091c1.742,0.572 2.324,2.879 5.569,2.879c3.465,0 4.331,-2.97 5.939,-2.97c1.609,0 2.291,3.082 5.569,2.97c4.003,-0.137 3.588,-2.228 5.197,-2.228l0,7.054Z" style="fill:#aae2fa;fill-opacity:0.5;"/>
		<path d="M19.52,17.904c0.701,-0.81 0.275,-6.596 -3.609,-7.799c-11.371,-3.523 -11.781,15.872 -18.056,20.715c-4.101,3.165 -7.302,5.288 -13.019,6.225c-5.694,0.934 -21.252,8.327 -21.252,8.327c0,0 90.826,4.587 78.39,2.286c-14.545,-2.691 -20.829,-8.596 -24.952,-12.082c-5.361,-4.532 -4.543,-14.466 -3.116,-16.606c2.47,-3.704 5.039,-0.402 5.614,-1.066Z" style="fill:#56b3e5;fill-opacity:0.36;"/>
		<path d="M41.199,16.083c1.061,-0.859 0.416,-6.991 -5.458,-8.267c-17.2,-3.733 -17.819,16.823 -27.311,21.957c-6.203,3.354 -11.045,5.604 -19.693,6.598c-8.612,0.989 -32.144,8.826 -32.144,8.826c0,0 137.379,4.862 118.57,2.423c-22,-2.853 -31.506,-9.112 -37.742,-12.807c-8.108,-4.803 -6.871,-15.333 -4.713,-17.6c3.736,-3.927 7.621,-0.426 8.491,-1.13Z" style="fill:#56b3e5;fill-opacity:0.59;"/>
		<path d="M12.161,23.888c0.663,-0.651 0.26,-5.298 -3.409,-6.265c-10.741,-2.829 -11.128,12.749 -17.056,16.638c-3.874,2.543 -6.898,4.247 -12.299,5c-5.378,0.75 -20.074,6.689 -20.074,6.689c0,0 85.796,3.684 74.049,1.835c-13.739,-2.161 -19.676,-6.904 -23.571,-9.704c-5.063,-3.64 -4.29,-11.619 -2.943,-13.337c2.334,-2.975 4.76,-0.323 5.303,-0.856Z" style="fill:#56b3e5;fill-opacity:0.59;"/>
	</g>
</svg>